<?xml version="1.0" encoding="iso-8859-1"?>
<!-- Generator: Adobe Illustrator 19.0.0, SVG Export Plug-In . SVG Version: 6.00 Build 0)  -->
<svg version="1.1" id="Capa_1" xmlns="http://www.w3.org/2000/svg" xmlns:xlink="http://www.w3.org/1999/xlink" x="0px" y="0px"
	 viewBox="0 0 472.615 472.615" style="enable-background:new 0 0 472.615 472.615;" xml:space="preserve">
<g>
	<g>
		<path d="M0,241.723v228.431h78.769V241.723H0z M59.077,450.462H19.692V261.415h39.385V450.462z"/>
	</g>
</g>
<g>
	<g>
		<path d="M131.938,273.231v196.923h78.769V273.231H131.938z M191.015,450.462h-39.385V292.923h39.385V450.462z"/>
	</g>
</g>
<g>
	<g>
		<path d="M262.892,200.369v269.785h78.769V200.369H262.892z M321.969,450.462h-39.385v-230.4h39.385V450.462z"/>
	</g>
</g>
<g>
	<g>
		<path d="M393.846,214.154v256h78.769v-256H393.846z M452.923,450.462h-39.385V233.846h39.385V450.462z"/>
	</g>
</g>
<g>
	<g>
		<path d="M40.369,47.754C17.723,47.754,0,65.477,0,87.138c0,21.662,17.723,39.385,40.369,39.385
			c21.661,0,40.369-17.723,40.369-39.385C80.739,65.477,63.016,47.754,40.369,47.754z M40.369,106.831
			c-11.816,0-20.677-8.861-20.677-19.692c0-10.831,8.861-19.692,20.677-19.692c10.831,0,20.677,8.862,20.677,19.692
			C61.046,97.969,52.185,106.831,40.369,106.831z"/>
	</g>
</g>
<g>
	<g>
		<path d="M201.846,126.523c-20.677,0-37.415,16.739-37.415,37.415c0,20.677,16.738,37.415,37.415,37.415
			c20.677,0,37.415-16.739,37.415-37.415C239.262,143.262,222.523,126.523,201.846,126.523z M201.846,182.646
			c-9.846,0-17.723-7.877-17.723-17.723c0-9.846,7.877-17.723,17.723-17.723c9.846,0,17.723,7.877,17.723,17.723
			C219.569,174.769,211.692,182.646,201.846,182.646z"/>
	</g>
</g>
<g>
	<g>
		<path d="M306.215,2.462c-21.661,0-39.385,17.723-39.385,39.385s17.723,39.385,39.385,39.385S345.6,63.508,345.6,41.846
			S327.877,2.462,306.215,2.462z M306.215,62.523c-10.831,0-19.692-8.862-19.692-19.692s8.862-19.692,19.692-19.692
			c10.831,0,19.692,8.862,19.692,19.692S317.046,62.523,306.215,62.523z"/>
	</g>
</g>
<g>
	<g>
		<path d="M432.246,85.169c-21.661,0-39.385,17.723-39.385,39.385s17.723,39.385,39.385,39.385
			c21.662,0,39.385-17.723,39.385-39.385S453.908,85.169,432.246,85.169z M432.246,145.231c-10.831,0-19.692-8.862-19.692-19.692
			s8.862-19.692,19.692-19.692s19.692,7.877,19.692,19.692C451.938,136.369,443.077,145.231,432.246,145.231z"/>
	</g>
</g>
<g>
	<g>
		
			<rect x="114.135" y="67.386" transform="matrix(0.4462 -0.8949 0.8949 0.4462 -42.7521 179.896)" width="19.692" height="114.212"/>
	</g>
</g>
<g>
	<g>
		<rect x="203.196" y="91.423" transform="matrix(0.622 -0.783 0.783 0.622 16.3158 236.3351)" width="99.453" height="19.694"/>
	</g>
</g>
<g>
	<g>
		
			<rect x="359.207" y="33.631" transform="matrix(0.5764 -0.8172 0.8172 0.5764 91.4392 335.2246)" width="19.693" height="91.572"/>
	</g>
</g>
<g>
</g>
<g>
</g>
<g>
</g>
<g>
</g>
<g>
</g>
<g>
</g>
<g>
</g>
<g>
</g>
<g>
</g>
<g>
</g>
<g>
</g>
<g>
</g>
<g>
</g>
<g>
</g>
<g>
</g>
</svg>
