<svg height="480pt" viewBox="0 -36 480 479" width="480pt" xmlns="http://www.w3.org/2000/svg"><path d="m408 80.5h-112v-8c-.046875-39.746094-32.253906-71.953125-72-72h-152c-39.746094.046875-71.953125 32.253906-72 72v96c.046875 39.746094 32.253906 71.953125 72 72h8v64c0 3.234375 1.949219 6.152344 4.9375 7.390625s6.429688.550781 8.71875-1.734375l69.65625-69.65625h20.6875v8c.046875 39.746094 32.253906 71.953125 72 72h44.6875l85.65625 85.65625c2.289062 2.285156 5.730469 2.972656 8.71875 1.734375s4.9375-4.15625 4.9375-7.390625v-80h8c39.746094-.046875 71.953125-32.253906 72-72v-96c-.046875-39.746094-32.253906-71.953125-72-72zm-248 144c-2.121094 0-4.15625.84375-5.65625 2.34375l-58.34375 58.34375v-52.6875c0-4.417969-3.582031-8-8-8h-16c-30.914062-.035156-55.964844-25.085938-56-56v-96c.035156-30.914062 25.085938-55.964844 56-56h152c30.914062.035156 55.964844 25.085938 56 56v8h-24c-39.746094.046875-71.953125 32.253906-72 72v72zm304 24c-.035156 30.914062-25.085938 55.964844-56 56h-16c-4.417969 0-8 3.582031-8 8v68.6875l-74.34375-74.34375c-1.5-1.5-3.535156-2.34375-5.65625-2.34375h-48c-30.914062-.035156-55.964844-25.085938-56-56v-96c.035156-30.914062 25.085938-55.964844 56-56h152c30.914062.035156 55.964844 25.085938 56 56zm0 0"/><path d="m424 144.5h-184c-4.417969 0-8 3.582031-8 8s3.582031 8 8 8h184c4.417969 0 8-3.582031 8-8s-3.582031-8-8-8zm0 0"/><path d="m424 192.5h-184c-4.417969 0-8 3.582031-8 8s3.582031 8 8 8h184c4.417969 0 8-3.582031 8-8s-3.582031-8-8-8zm0 0"/><path d="m424 240.5h-184c-4.417969 0-8 3.582031-8 8s3.582031 8 8 8h184c4.417969 0 8-3.582031 8-8s-3.582031-8-8-8zm0 0"/><path d="m48 80.5h168c4.417969 0 8-3.582031 8-8s-3.582031-8-8-8h-168c-4.417969 0-8 3.582031-8 8s3.582031 8 8 8zm0 0"/><path d="m168 112.5h-120c-4.417969 0-8 3.582031-8 8s3.582031 8 8 8h120c4.417969 0 8-3.582031 8-8s-3.582031-8-8-8zm0 0"/><path d="m160 160.5h-112c-4.417969 0-8 3.582031-8 8s3.582031 8 8 8h112c4.417969 0 8-3.582031 8-8s-3.582031-8-8-8zm0 0"/></svg>