<svg width="86" height="78" viewBox="0 0 86 78" fill="none" xmlns="http://www.w3.org/2000/svg">
<path d="M84.5 41H82C81.53 25.61 72.73 12.74 59.61 7H76V9.5C76 9.89782 76.158 10.2794 76.4393 10.5607C76.7206 10.842 77.1022 11 77.5 11C77.8978 11 78.2794 10.842 78.5607 10.5607C78.842 10.2794 79 9.89782 79 9.5V1.5C79 1.10218 78.842 0.720644 78.5607 0.43934C78.2794 0.158035 77.8978 0 77.5 0C77.1022 0 76.7206 0.158035 76.4393 0.43934C76.158 0.720644 76 1.10218 76 1.5V4H49V1.5C49 1.10218 48.842 0.720644 48.5607 0.43934C48.2794 0.158035 47.8978 0 47.5 0H39.5C39.1022 0 38.7206 0.158035 38.4393 0.43934C38.158 0.720644 38 1.10218 38 1.5V4H11V1.5C11 1.10218 10.842 0.720644 10.5607 0.43934C10.2794 0.158035 9.89782 0 9.5 0C9.10218 0 8.72064 0.158035 8.43934 0.43934C8.15804 0.720644 8 1.10218 8 1.5V9.5C8 9.89782 8.15804 10.2794 8.43934 10.5607C8.72064 10.842 9.10218 11 9.5 11C9.89782 11 10.2794 10.842 10.5607 10.5607C10.842 10.2794 11 9.89782 11 9.5V7H27.34C20.4661 9.93033 14.5965 14.8026 10.4507 21.0195C6.30492 27.2364 4.06308 34.5278 4 42H1.5C1.10218 42 0.720644 42.158 0.43934 42.4393C0.158035 42.7206 0 43.1022 0 43.5V51.5C0 51.8978 0.158035 52.2794 0.43934 52.5607C0.720644 52.842 1.10218 53 1.5 53H9.5C9.89782 53 10.2794 52.842 10.5607 52.5607C10.842 52.2794 11 51.8978 11 51.5V43.5C11 43.1022 10.842 42.7206 10.5607 42.4393C10.2794 42.158 9.89782 42 9.5 42H7C7.10013 33.4295 10.2916 25.1833 15.9873 18.7784C21.683 12.3735 29.4999 8.24062 38 7.14V9.5C38 9.89782 38.158 10.2794 38.4393 10.5607C38.7206 10.842 39.1022 11 39.5 11H42.08L26.51 50.51C26.3785 50.8545 26.3785 51.2355 26.51 51.58L32.09 66.77L32 76.49C31.9987 76.6878 32.0365 76.8839 32.1113 77.0671C32.1861 77.2502 32.2964 77.4168 32.4358 77.5571C32.5752 77.6975 32.741 77.8089 32.9237 77.8849C33.1063 77.9609 33.3022 78 33.5 78H52.5C52.8978 78 53.2794 77.842 53.5607 77.5607C53.842 77.2794 54 76.8978 54 76.5V66.82L60.81 51.67C60.8884 51.4849 60.9288 51.286 60.9288 51.085C60.9288 50.884 60.8884 50.6851 60.81 50.5L44.92 11H47.5C47.8978 11 48.2794 10.842 48.5607 10.5607C48.842 10.2794 49 9.89782 49 9.5V7.14C66 9.47 78.39 23.44 79 41H76.5C76.1022 41 75.7206 41.158 75.4393 41.4393C75.158 41.7206 75 42.1022 75 42.5V50.5C75 50.8978 75.158 51.2794 75.4393 51.5607C75.7206 51.842 76.1022 52 76.5 52H84.5C84.8978 52 85.2794 51.842 85.5607 51.5607C85.842 51.2794 86 50.8978 86 50.5V42.5C86 42.1022 85.842 41.7206 85.5607 41.4393C85.2794 41.158 84.8978 41 84.5 41V41ZM8 50H3V45H8V50ZM35 75L35.06 68H51V75H35ZM51.53 65H34.63L29.51 51.08L42 19.39V46.5C42 46.8978 42.158 47.2794 42.4393 47.5607C42.7206 47.842 43.1022 48 43.5 48C43.8978 48 44.2794 47.842 44.5607 47.5607C44.842 47.2794 45 46.8978 45 46.5V19.24L57.81 51L51.53 65ZM46 8H41V3H46V8ZM83 49H78V44H83V49Z" fill="white"/>
</svg>
