<?xml version="1.0" encoding="UTF-8"?>
<!DOCTYPE svg PUBLIC "-//W3C//DTD SVG 1.1//EN" "http://www.w3.org/Graphics/SVG/1.1/DTD/svg11.dtd">
<!-- Creator: CorelDRAW X5 -->
<svg xmlns="http://www.w3.org/2000/svg" xml:space="preserve" width="6.72in" height="6.72in" style="shape-rendering:geometricPrecision; text-rendering:geometricPrecision; image-rendering:optimizeQuality; fill-rule:evenodd; clip-rule:evenodd"
viewBox="0 0 6720 6720"
 xmlns:xlink="http://www.w3.org/1999/xlink">
 <defs>
  <style type="text/css">
   <![CDATA[
    .fil1 {fill:none}
    .fil0 {fill:black;fill-rule:nonzero}
   ]]>
  </style>
 </defs>
 <g id="Layer_x0020_1">
  <metadata id="CorelCorpID_0Corel-Layer"/>
  <g id="_375699200">
   <path class="fil0" d="M880 1270l4960 0c44,0 80,36 80,80l0 3495c0,44 -36,80 -80,80l-4960 0c-44,0 -80,-36 -80,-80l0 -3495c0,-44 36,-80 80,-80zm4880 160l-4800 0 0 3335 4800 0 0 -3335z"/>
   <path class="fil0" d="M2894 4766l932 0c44,0 80,36 80,80l0 524c0,44 -36,80 -80,80l-932 0c-44,0 -80,-36 -80,-80l0 -524c0,-44 36,-80 80,-80zm852 160l-772 0 0 364 772 0 0 -364z"/>
   <path class="fil0" d="M2122 5290c-44,0 -80,36 -80,80 0,44 36,80 80,80l2476 0c44,0 80,-36 80,-80 0,-44 -36,-80 -80,-80l-2476 0z"/>
   <path class="fil0" d="M4350 1878c337,0 642,137 862,357 221,221 357,526 357,862 0,337 -137,642 -357,862 -221,221 -526,357 -862,357 -337,0 -642,-137 -862,-357 -221,-221 -357,-526 -357,-862 0,-337 137,-642 357,-862 221,-221 526,-357 862,-357zm749 470c-192,-192 -457,-310 -749,-310 -293,0 -558,119 -749,310 -192,192 -310,457 -310,749 0,293 119,558 310,749 192,192 457,310 749,310 293,0 558,-119 749,-310 192,-192 310,-457 310,-749 0,-293 -119,-558 -310,-749z"/>
   <path class="fil0" d="M4350 1878c201,0 379,144 504,376 117,217 189,516 189,844 0,328 -72,626 -189,844 -125,232 -303,376 -504,376 -201,0 -379,-144 -504,-376 -117,-217 -189,-516 -189,-844 0,-328 72,-626 189,-844 125,-232 303,-376 504,-376zm364 452c-97,-180 -226,-292 -364,-292 -138,0 -267,111 -364,292 -105,195 -170,467 -170,768 0,301 65,573 170,768 97,180 226,292 364,292 138,0 267,-111 364,-292 105,-195 170,-467 170,-768 0,-301 -65,-573 -170,-768z"/>
   <path class="fil0" d="M3355 2496c-44,0 -80,36 -80,80 0,44 36,80 80,80l1991 0c44,0 80,-36 80,-80 0,-44 -36,-80 -80,-80l-1991 0z"/>
   <path class="fil0" d="M3258 3018c-44,0 -80,36 -80,80 0,44 36,80 80,80l2232 0c44,0 80,-36 80,-80 0,-44 -36,-80 -80,-80l-2232 0z"/>
   <path class="fil0" d="M3355 3540c-44,0 -80,36 -80,80 0,44 36,80 80,80l1991 0c44,0 80,-36 80,-80 0,-44 -36,-80 -80,-80l-1991 0z"/>
   <path class="fil0" d="M1231 2445c-44,0 -80,36 -80,80 0,44 36,80 80,80l1694 0c44,0 80,-36 80,-80 0,-44 -36,-80 -80,-80l-1694 0z"/>
   <path class="fil0" d="M1231 3018c-44,0 -80,36 -80,80 0,44 36,80 80,80l1694 0c44,0 80,-36 80,-80 0,-44 -36,-80 -80,-80l-1694 0z"/>
   <path class="fil0" d="M1231 3590c-44,0 -80,36 -80,80 0,44 36,80 80,80l1694 0c44,0 80,-36 80,-80 0,-44 -36,-80 -80,-80l-1694 0z"/>
  </g>
 </g>
 <rect class="fil1" width="6720" height="6720"/>
</svg>
